  999
DXF file created by gear template generator.  2012-04-23T13:37:35
  0
SECTION
  2
HEADER
  9
$ACADVER
  1
AC1006
  9
$INSBASE
  10
0.0
  20
0.0
  30
0.0
  9
$EXTMIN
  10
0.0
  20
0.0
  9
$EXTMAX
  10
10000.0
  20
10000.0
  0
ENDSEC
  0
SECTION
  2
ENTITIES
 0
LWPOLYLINE
 8
profile
 90
600
 70
1
 10
2.48577
 20
1.52501
 10
2.49818
 20
1.46714
 10
2.50336
 20
1.46291
 10
2.50838
 20
1.46004
 10
2.51372
 20
1.45381
 10
2.52317
 20
1.45389
 10
2.53269
 20
1.45331
 10
2.55182
 20
1.45087
 10
2.57106
 20
1.44713
 10
2.59036
 20
1.44228
 10
2.60969
 20
1.43644
 10
2.62905
 20
1.42969
 10
2.64841
 20
1.42207
 10
2.66776
 20
1.41363
 10
2.68707
 20
1.40438
 10
2.68707
 20
1.28403
 10
2.66776
 20
1.27479
 10
2.64841
 20
1.26635
 10
2.62905
 20
1.25873
 10
2.60969
 20
1.25197
 10
2.59036
 20
1.24613
 10
2.57106
 20
1.24129
 10
2.55182
 20
1.23754
 10
2.53269
 20
1.23511
 10
2.52317
 20
1.23452
 10
2.51372
 20
1.23461
 10
2.50838
 20
1.22838
 10
2.50336
 20
1.22551
 10
2.49818
 20
1.22128
 10
2.48577
 20
1.1634
 10
2.48577
 20
1.1634
 10
2.47969
 20
1.10452
 10
2.48331
 20
1.0989
 10
2.4872
 20
1.09462
 10
2.49035
 20
1.08705
 10
2.49936
 20
1.0842
 10
2.50823
 20
1.08071
 10
2.52568
 20
1.07248
 10
2.54282
 20
1.06298
 10
2.55967
 20
1.0524
 10
2.57626
 20
1.04087
 10
2.59258
 20
1.02847
 10
2.60864
 20
1.01524
 10
2.62443
 20
1.00123
 10
2.63994
 20
0.98647
 10
2.60275
 20
0.87201
 10
2.58153
 20
0.86919
 10
2.56052
 20
0.86714
 10
2.53975
 20
0.86587
 10
2.51925
 20
0.86543
 10
2.49906
 20
0.86585
 10
2.47921
 20
0.86721
 10
2.45976
 20
0.86959
 10
2.44081
 20
0.87319
 10
2.43157
 20
0.87557
 10
2.42261
 20
0.87857
 10
2.41561
 20
0.8743
 10
2.40995
 20
0.87312
 10
2.40371
 20
0.8707
 10
2.37403
 20
0.81949
 10
2.37403
 20
0.81949
 10
2.35005
 20
0.76537
 10
2.35175
 20
0.75891
 10
2.35413
 20
0.75363
 10
2.35478
 20
0.74546
 10
2.36248
 20
0.73997
 10
2.36983
 20
0.7339
 10
2.38389
 20
0.72069
 10
2.39725
 20
0.70635
 10
2.41001
 20
0.69109
 10
2.42222
 20
0.675
 10
2.43391
 20
0.65815
 10
2.4451
 20
0.64061
 10
2.45578
 20
0.62241
 10
2.46598
 20
0.60358
 10
2.39524
 20
0.50621
 10
2.37418
 20
0.51009
 10
2.35357
 20
0.51463
 10
2.33342
 20
0.51984
 10
2.31379
 20
0.52576
 10
2.29472
 20
0.5324
 10
2.27625
 20
0.53982
 10
2.25849
 20
0.5481
 10
2.24158
 20
0.55738
 10
2.23354
 20
0.5625
 10
2.22594
 20
0.56812
 10
2.21796
 20
0.56622
 10
2.21221
 20
0.56684
 10
2.20554
 20
0.56647
 10
2.16148
 20
0.52694
 10
2.16148
 20
0.52694
 10
2.12195
 20
0.48288
 10
2.12157
 20
0.47621
 10
2.1222
 20
0.47045
 10
2.1203
 20
0.46248
 10
2.12592
 20
0.45488
 10
2.13104
 20
0.44684
 10
2.14032
 20
0.42992
 10
2.1486
 20
0.41216
 10
2.15602
 20
0.3937
 10
2.16266
 20
0.37462
 10
2.16858
 20
0.35499
 10
2.17379
 20
0.33485
 10
2.17833
 20
0.31424
 10
2.18221
 20
0.29318
 10
2.08484
 20
0.22244
 10
2.06601
 20
0.23263
 10
2.04781
 20
0.24332
 10
2.03027
 20
0.2545
 10
2.01342
 20
0.2662
 10
1.99733
 20
0.27841
 10
1.98207
 20
0.29117
 10
1.96773
 20
0.30453
 10
1.95452
 20
0.31858
 10
1.94845
 20
0.32594
 10
1.94296
 20
0.33363
 10
1.93479
 20
0.33429
 10
1.92951
 20
0.33666
 10
1.92304
 20
0.33837
 10
1.86893
 20
0.31439
 10
1.86893
 20
0.31439
 10
1.81772
 20
0.2847
 10
1.8153
 20
0.27847
 10
1.81412
 20
0.27281
 10
1.80985
 20
0.26581
 10
1.81284
 20
0.25684
 10
1.81523
 20
0.24761
 10
1.81883
 20
0.22866
 10
1.82121
 20
0.20921
 10
1.82256
 20
0.18936
 10
1.82299
 20
0.16916
 10
1.82254
 20
0.14867
 10
1.82128
 20
0.1279
 10
1.81923
 20
0.10689
 10
1.81641
 20
0.08567
 10
1.70194
 20
0.04848
 10
1.68719
 20
0.06399
 10
1.67318
 20
0.07978
 10
1.65995
 20
0.09584
 10
1.64754
 20
0.11216
 10
1.63602
 20
0.12875
 10
1.62544
 20
0.1456
 10
1.61594
 20
0.16274
 10
1.60771
 20
0.18019
 10
1.60421
 20
0.18905
 10
1.60137
 20
0.19807
 10
1.5938
 20
0.20122
 10
1.58951
 20
0.20511
 10
1.58389
 20
0.20873
 10
1.52501
 20
0.20265
 10
1.52501
 20
0.20265
 10
1.46714
 20
0.19024
 10
1.46291
 20
0.18506
 10
1.46004
 20
0.18003
 10
1.45381
 20
0.1747
 10
1.45389
 20
0.16525
 10
1.45331
 20
0.15573
 10
1.45087
 20
0.13659
 10
1.44713
 20
0.11736
 10
1.44228
 20
0.09806
 10
1.43644
 20
0.07872
 10
1.42969
 20
0.05937
 10
1.42207
 20
0.04001
 10
1.41363
 20
0.02066
 10
1.40438
 20
0.00135
 10
1.28403
 20
0.00135
 10
1.27479
 20
0.02066
 10
1.26635
 20
0.04001
 10
1.25873
 20
0.05937
 10
1.25197
 20
0.07872
 10
1.24613
 20
0.09806
 10
1.24129
 20
0.11736
 10
1.23754
 20
0.13659
 10
1.23511
 20
0.15573
 10
1.23452
 20
0.16525
 10
1.23461
 20
0.1747
 10
1.22838
 20
0.18003
 10
1.22551
 20
0.18506
 10
1.22128
 20
0.19024
 10
1.1634
 20
0.20265
 10
1.1634
 20
0.20265
 10
1.10452
 20
0.20873
 10
1.0989
 20
0.20511
 10
1.09462
 20
0.20122
 10
1.08705
 20
0.19807
 10
1.0842
 20
0.18905
 10
1.08071
 20
0.18019
 10
1.07248
 20
0.16274
 10
1.06298
 20
0.1456
 10
1.0524
 20
0.12875
 10
1.04087
 20
0.11216
 10
1.02847
 20
0.09584
 10
1.01524
 20
0.07978
 10
1.00123
 20
0.06399
 10
0.98647
 20
0.04848
 10
0.87201
 20
0.08567
 10
0.86919
 20
0.10689
 10
0.86714
 20
0.1279
 10
0.86587
 20
0.14867
 10
0.86543
 20
0.16916
 10
0.86585
 20
0.18936
 10
0.86721
 20
0.20921
 10
0.86959
 20
0.22866
 10
0.87319
 20
0.24761
 10
0.87557
 20
0.25684
 10
0.87857
 20
0.26581
 10
0.8743
 20
0.27281
 10
0.87312
 20
0.27847
 10
0.8707
 20
0.2847
 10
0.81949
 20
0.31439
 10
0.81949
 20
0.31439
 10
0.76537
 20
0.33837
 10
0.75891
 20
0.33666
 10
0.75363
 20
0.33429
 10
0.74546
 20
0.33363
 10
0.73997
 20
0.32594
 10
0.7339
 20
0.31858
 10
0.72069
 20
0.30453
 10
0.70635
 20
0.29117
 10
0.69109
 20
0.27841
 10
0.675
 20
0.2662
 10
0.65815
 20
0.2545
 10
0.64061
 20
0.24332
 10
0.62241
 20
0.23263
 10
0.60358
 20
0.22244
 10
0.50621
 20
0.29318
 10
0.51009
 20
0.31424
 10
0.51463
 20
0.33485
 10
0.51984
 20
0.35499
 10
0.52576
 20
0.37462
 10
0.5324
 20
0.3937
 10
0.53982
 20
0.41216
 10
0.5481
 20
0.42992
 10
0.55738
 20
0.44684
 10
0.5625
 20
0.45488
 10
0.56812
 20
0.46248
 10
0.56622
 20
0.47045
 10
0.56684
 20
0.47621
 10
0.56647
 20
0.48288
 10
0.52694
 20
0.52694
 10
0.52694
 20
0.52694
 10
0.48288
 20
0.56647
 10
0.47621
 20
0.56684
 10
0.47045
 20
0.56622
 10
0.46248
 20
0.56812
 10
0.45488
 20
0.5625
 10
0.44684
 20
0.55738
 10
0.42992
 20
0.5481
 10
0.41216
 20
0.53982
 10
0.3937
 20
0.5324
 10
0.37462
 20
0.52576
 10
0.35499
 20
0.51984
 10
0.33485
 20
0.51463
 10
0.31424
 20
0.51009
 10
0.29318
 20
0.50621
 10
0.22244
 20
0.60358
 10
0.23263
 20
0.62241
 10
0.24332
 20
0.64061
 10
0.2545
 20
0.65815
 10
0.2662
 20
0.675
 10
0.27841
 20
0.69109
 10
0.29117
 20
0.70635
 10
0.30453
 20
0.72069
 10
0.31858
 20
0.7339
 10
0.32594
 20
0.73997
 10
0.33363
 20
0.74546
 10
0.33429
 20
0.75363
 10
0.33666
 20
0.75891
 10
0.33837
 20
0.76537
 10
0.31439
 20
0.81949
 10
0.31439
 20
0.81949
 10
0.2847
 20
0.8707
 10
0.27847
 20
0.87312
 10
0.27281
 20
0.8743
 10
0.26581
 20
0.87857
 10
0.25684
 20
0.87557
 10
0.24761
 20
0.87319
 10
0.22866
 20
0.86959
 10
0.20921
 20
0.86721
 10
0.18936
 20
0.86585
 10
0.16916
 20
0.86543
 10
0.14867
 20
0.86587
 10
0.1279
 20
0.86714
 10
0.10689
 20
0.86919
 10
0.08567
 20
0.87201
 10
0.04848
 20
0.98647
 10
0.06399
 20
1.00123
 10
0.07978
 20
1.01524
 10
0.09584
 20
1.02847
 10
0.11216
 20
1.04087
 10
0.12875
 20
1.0524
 10
0.1456
 20
1.06298
 10
0.16274
 20
1.07248
 10
0.18019
 20
1.08071
 10
0.18905
 20
1.0842
 10
0.19807
 20
1.08705
 10
0.20122
 20
1.09462
 10
0.20511
 20
1.0989
 10
0.20873
 20
1.10452
 10
0.20265
 20
1.1634
 10
0.20265
 20
1.1634
 10
0.19024
 20
1.22128
 10
0.18506
 20
1.22551
 10
0.18003
 20
1.22838
 10
0.1747
 20
1.23461
 10
0.16525
 20
1.23452
 10
0.15573
 20
1.23511
 10
0.13659
 20
1.23754
 10
0.11736
 20
1.24129
 10
0.09806
 20
1.24613
 10
0.07872
 20
1.25197
 10
0.05937
 20
1.25873
 10
0.04001
 20
1.26635
 10
0.02066
 20
1.27479
 10
0.00135
 20
1.28403
 10
0.00135
 20
1.40438
 10
0.02066
 20
1.41363
 10
0.04001
 20
1.42207
 10
0.05937
 20
1.42969
 10
0.07872
 20
1.43644
 10
0.09806
 20
1.44228
 10
0.11736
 20
1.44713
 10
0.13659
 20
1.45087
 10
0.15573
 20
1.45331
 10
0.16525
 20
1.45389
 10
0.1747
 20
1.45381
 10
0.18003
 20
1.46004
 10
0.18506
 20
1.46291
 10
0.19024
 20
1.46714
 10
0.20265
 20
1.52501
 10
0.20265
 20
1.52501
 10
0.20873
 20
1.58389
 10
0.20511
 20
1.58951
 10
0.20122
 20
1.5938
 10
0.19807
 20
1.60137
 10
0.18905
 20
1.60421
 10
0.18019
 20
1.60771
 10
0.16274
 20
1.61594
 10
0.1456
 20
1.62544
 10
0.12875
 20
1.63602
 10
0.11216
 20
1.64754
 10
0.09584
 20
1.65995
 10
0.07978
 20
1.67318
 10
0.06399
 20
1.68719
 10
0.04848
 20
1.70194
 10
0.08567
 20
1.81641
 10
0.10689
 20
1.81923
 10
0.1279
 20
1.82128
 10
0.14867
 20
1.82254
 10
0.16916
 20
1.82299
 10
0.18936
 20
1.82256
 10
0.20921
 20
1.82121
 10
0.22866
 20
1.81883
 10
0.24761
 20
1.81523
 10
0.25684
 20
1.81284
 10
0.26581
 20
1.80985
 10
0.27281
 20
1.81412
 10
0.27847
 20
1.8153
 10
0.2847
 20
1.81772
 10
0.31439
 20
1.86893
 10
0.31439
 20
1.86893
 10
0.33837
 20
1.92304
 10
0.33666
 20
1.92951
 10
0.33429
 20
1.93479
 10
0.33363
 20
1.94296
 10
0.32594
 20
1.94845
 10
0.31858
 20
1.95452
 10
0.30453
 20
1.96773
 10
0.29117
 20
1.98207
 10
0.27841
 20
1.99733
 10
0.2662
 20
2.01342
 10
0.2545
 20
2.03027
 10
0.24332
 20
2.04781
 10
0.23263
 20
2.06601
 10
0.22244
 20
2.08484
 10
0.29318
 20
2.18221
 10
0.31424
 20
2.17833
 10
0.33485
 20
2.17379
 10
0.35499
 20
2.16858
 10
0.37462
 20
2.16266
 10
0.3937
 20
2.15602
 10
0.41216
 20
2.1486
 10
0.42992
 20
2.14032
 10
0.44684
 20
2.13104
 10
0.45488
 20
2.12592
 10
0.46248
 20
2.1203
 10
0.47045
 20
2.1222
 10
0.47621
 20
2.12157
 10
0.48288
 20
2.12195
 10
0.52694
 20
2.16148
 10
0.52694
 20
2.16148
 10
0.56647
 20
2.20554
 10
0.56684
 20
2.21221
 10
0.56622
 20
2.21796
 10
0.56812
 20
2.22594
 10
0.5625
 20
2.23354
 10
0.55738
 20
2.24158
 10
0.5481
 20
2.25849
 10
0.53982
 20
2.27625
 10
0.5324
 20
2.29472
 10
0.52576
 20
2.31379
 10
0.51984
 20
2.33342
 10
0.51463
 20
2.35357
 10
0.51009
 20
2.37418
 10
0.50621
 20
2.39524
 10
0.60358
 20
2.46598
 10
0.62241
 20
2.45578
 10
0.64061
 20
2.4451
 10
0.65815
 20
2.43391
 10
0.675
 20
2.42222
 10
0.69109
 20
2.41001
 10
0.70635
 20
2.39725
 10
0.72069
 20
2.38389
 10
0.7339
 20
2.36983
 10
0.73997
 20
2.36248
 10
0.74546
 20
2.35478
 10
0.75363
 20
2.35413
 10
0.75891
 20
2.35175
 10
0.76537
 20
2.35005
 10
0.81949
 20
2.37403
 10
0.81949
 20
2.37403
 10
0.8707
 20
2.40371
 10
0.87312
 20
2.40995
 10
0.8743
 20
2.41561
 10
0.87857
 20
2.42261
 10
0.87557
 20
2.43157
 10
0.87319
 20
2.44081
 10
0.86959
 20
2.45976
 10
0.86721
 20
2.47921
 10
0.86585
 20
2.49906
 10
0.86543
 20
2.51925
 10
0.86587
 20
2.53975
 10
0.86714
 20
2.56052
 10
0.86919
 20
2.58153
 10
0.87201
 20
2.60275
 10
0.98647
 20
2.63994
 10
1.00123
 20
2.62443
 10
1.01524
 20
2.60864
 10
1.02847
 20
2.59258
 10
1.04087
 20
2.57626
 10
1.0524
 20
2.55967
 10
1.06298
 20
2.54282
 10
1.07248
 20
2.52568
 10
1.08071
 20
2.50823
 10
1.0842
 20
2.49936
 10
1.08705
 20
2.49035
 10
1.09462
 20
2.4872
 10
1.0989
 20
2.48331
 10
1.10452
 20
2.47969
 10
1.1634
 20
2.48577
 10
1.1634
 20
2.48577
 10
1.22128
 20
2.49818
 10
1.22551
 20
2.50336
 10
1.22838
 20
2.50838
 10
1.23461
 20
2.51372
 10
1.23452
 20
2.52317
 10
1.23511
 20
2.53269
 10
1.23754
 20
2.55182
 10
1.24129
 20
2.57106
 10
1.24613
 20
2.59036
 10
1.25197
 20
2.60969
 10
1.25873
 20
2.62905
 10
1.26635
 20
2.64841
 10
1.27479
 20
2.66776
 10
1.28403
 20
2.68707
 10
1.40438
 20
2.68707
 10
1.41363
 20
2.66776
 10
1.42207
 20
2.64841
 10
1.42969
 20
2.62905
 10
1.43644
 20
2.60969
 10
1.44228
 20
2.59036
 10
1.44713
 20
2.57106
 10
1.45087
 20
2.55182
 10
1.45331
 20
2.53269
 10
1.45389
 20
2.52317
 10
1.45381
 20
2.51372
 10
1.46004
 20
2.50838
 10
1.46291
 20
2.50336
 10
1.46714
 20
2.49818
 10
1.52501
 20
2.48577
 10
1.52501
 20
2.48577
 10
1.58389
 20
2.47969
 10
1.58951
 20
2.48331
 10
1.5938
 20
2.4872
 10
1.60137
 20
2.49035
 10
1.60421
 20
2.49936
 10
1.60771
 20
2.50823
 10
1.61594
 20
2.52568
 10
1.62544
 20
2.54282
 10
1.63602
 20
2.55967
 10
1.64754
 20
2.57626
 10
1.65995
 20
2.59258
 10
1.67318
 20
2.60864
 10
1.68719
 20
2.62443
 10
1.70194
 20
2.63994
 10
1.81641
 20
2.60275
 10
1.81923
 20
2.58153
 10
1.82128
 20
2.56052
 10
1.82254
 20
2.53975
 10
1.82299
 20
2.51925
 10
1.82256
 20
2.49906
 10
1.82121
 20
2.47921
 10
1.81883
 20
2.45976
 10
1.81523
 20
2.44081
 10
1.81284
 20
2.43157
 10
1.80985
 20
2.42261
 10
1.81412
 20
2.41561
 10
1.8153
 20
2.40995
 10
1.81772
 20
2.40371
 10
1.86893
 20
2.37403
 10
1.86893
 20
2.37403
 10
1.92304
 20
2.35005
 10
1.92951
 20
2.35175
 10
1.93479
 20
2.35413
 10
1.94296
 20
2.35478
 10
1.94845
 20
2.36248
 10
1.95452
 20
2.36983
 10
1.96773
 20
2.38389
 10
1.98207
 20
2.39725
 10
1.99733
 20
2.41001
 10
2.01342
 20
2.42222
 10
2.03027
 20
2.43391
 10
2.04781
 20
2.4451
 10
2.06601
 20
2.45578
 10
2.08484
 20
2.46598
 10
2.18221
 20
2.39524
 10
2.17833
 20
2.37418
 10
2.17379
 20
2.35357
 10
2.16858
 20
2.33342
 10
2.16266
 20
2.31379
 10
2.15602
 20
2.29472
 10
2.1486
 20
2.27625
 10
2.14032
 20
2.25849
 10
2.13104
 20
2.24158
 10
2.12592
 20
2.23354
 10
2.1203
 20
2.22594
 10
2.1222
 20
2.21796
 10
2.12157
 20
2.21221
 10
2.12195
 20
2.20554
 10
2.16148
 20
2.16148
 10
2.16148
 20
2.16148
 10
2.20554
 20
2.12195
 10
2.21221
 20
2.12157
 10
2.21796
 20
2.1222
 10
2.22594
 20
2.1203
 10
2.23354
 20
2.12592
 10
2.24158
 20
2.13104
 10
2.25849
 20
2.14032
 10
2.27625
 20
2.1486
 10
2.29472
 20
2.15602
 10
2.31379
 20
2.16266
 10
2.33342
 20
2.16858
 10
2.35357
 20
2.17379
 10
2.37418
 20
2.17833
 10
2.39524
 20
2.18221
 10
2.46598
 20
2.08484
 10
2.45578
 20
2.06601
 10
2.4451
 20
2.04781
 10
2.43391
 20
2.03027
 10
2.42222
 20
2.01342
 10
2.41001
 20
1.99733
 10
2.39725
 20
1.98207
 10
2.38389
 20
1.96773
 10
2.36983
 20
1.95452
 10
2.36248
 20
1.94845
 10
2.35478
 20
1.94296
 10
2.35413
 20
1.93479
 10
2.35175
 20
1.92951
 10
2.35005
 20
1.92304
 10
2.37403
 20
1.86893
 10
2.37403
 20
1.86893
 10
2.40371
 20
1.81772
 10
2.40995
 20
1.8153
 10
2.41561
 20
1.81412
 10
2.42261
 20
1.80985
 10
2.43157
 20
1.81284
 10
2.44081
 20
1.81523
 10
2.45976
 20
1.81883
 10
2.47921
 20
1.82121
 10
2.49906
 20
1.82256
 10
2.51925
 20
1.82299
 10
2.53975
 20
1.82254
 10
2.56052
 20
1.82128
 10
2.58153
 20
1.81923
 10
2.60275
 20
1.81641
 10
2.63994
 20
1.70194
 10
2.62443
 20
1.68719
 10
2.60864
 20
1.67318
 10
2.59258
 20
1.65995
 10
2.57626
 20
1.64754
 10
2.55967
 20
1.63602
 10
2.54282
 20
1.62544
 10
2.52568
 20
1.61594
 10
2.50823
 20
1.60771
 10
2.49936
 20
1.60421
 10
2.49035
 20
1.60137
 10
2.4872
 20
1.5938
 10
2.48331
 20
1.58951
 10
2.47969
 20
1.58389
 10
2.48577
 20
1.52501
 0
CIRCLE
 8
profile
 10
1.34421
 20
1.34421
 40
0.125
 0
LWPOLYLINE
 8
profile
 90
450
 70
1
 10
2.68842
 20
1.34421
 10
2.68842
 20
1.40204
 10
2.68573
 20
1.40627
 10
2.68295
 20
1.40942
 10
2.6801
 20
1.412
 10
2.67721
 20
1.41418
 10
2.67429
 20
1.41608
 10
2.66838
 20
1.41923
 10
2.66238
 20
1.42172
 10
2.65632
 20
1.42372
 10
2.64403
 20
1.42652
 10
2.63169
 20
1.42893
 10
2.61963
 20
1.4333
 10
2.60777
 20
1.43885
 10
2.59608
 20
1.44533
 10
2.58456
 20
1.45262
 10
2.57322
 20
1.46066
 10
2.56206
 20
1.4694
 10
2.55111
 20
1.47881
 10
2.54036
 20
1.48886
 10
2.52984
 20
1.49951
 10
2.51955
 20
1.51077
 10
2.55527
 20
1.62071
 10
2.57021
 20
1.62376
 10
2.58499
 20
1.6262
 10
2.59959
 20
1.62801
 10
2.61398
 20
1.62918
 10
2.62814
 20
1.6297
 10
2.64204
 20
1.62954
 10
2.65565
 20
1.62867
 10
2.66892
 20
1.62704
 10
2.68177
 20
1.62455
 10
2.6941
 20
1.621
 10
2.7055
 20
1.6157
 10
2.71709
 20
1.61074
 10
2.72317
 20
1.60879
 10
2.72948
 20
1.60729
 10
2.73612
 20
1.60636
 10
2.7396
 20
1.60618
 10
2.74322
 20
1.60625
 10
2.74703
 20
1.60666
 10
2.75114
 20
1.60757
 10
2.7558
 20
1.60941
 10
2.78979
 20
1.6562
 10
2.78979
 20
1.6562
 10
2.78979
 20
1.6562
 10
2.82378
 20
1.70299
 10
2.8241
 20
1.70798
 10
2.8237
 20
1.71217
 10
2.82291
 20
1.71593
 10
2.82186
 20
1.71939
 10
2.82061
 20
1.72265
 10
2.81767
 20
1.72867
 10
2.81429
 20
1.73421
 10
2.81056
 20
1.73939
 10
2.80226
 20
1.74888
 10
2.79369
 20
1.75809
 10
2.78651
 20
1.76871
 10
2.78017
 20
1.78017
 10
2.77452
 20
1.79228
 10
2.76949
 20
1.80495
 10
2.76504
 20
1.81812
 10
2.76116
 20
1.83175
 10
2.75782
 20
1.8458
 10
2.75503
 20
1.86025
 10
2.75278
 20
1.87505
 10
2.75108
 20
1.89021
 10
2.84459
 20
1.95815
 10
2.85848
 20
1.95185
 10
2.87187
 20
1.94513
 10
2.88474
 20
1.93802
 10
2.89707
 20
1.9305
 10
2.90883
 20
1.9226
 10
2.91999
 20
1.91429
 10
2.93048
 20
1.90559
 10
2.94025
 20
1.89648
 10
2.94919
 20
1.88691
 10
2.95708
 20
1.87679
 10
2.96319
 20
1.8658
 10
2.96965
 20
1.85498
 10
2.97342
 20
1.84983
 10
2.97765
 20
1.8449
 10
2.98247
 20
1.84024
 10
2.98517
 20
1.83805
 10
2.98814
 20
1.83598
 10
2.99147
 20
1.83407
 10
2.99533
 20
1.8324
 10
3.00018
 20
1.83115
 10
3.05518
 20
1.84902
 10
3.05518
 20
1.84902
 10
3.05518
 20
1.84902
 10
3.11019
 20
1.86689
 10
3.11338
 20
1.87075
 10
3.11552
 20
1.87438
 10
3.11709
 20
1.87788
 10
3.11827
 20
1.8813
 10
3.11917
 20
1.88466
 10
3.12034
 20
1.89126
 10
3.12086
 20
1.89773
 10
3.12088
 20
1.90412
 10
3.11975
 20
1.91667
 10
3.11823
 20
1.92915
 10
3.11867
 20
1.94197
 10
3.12027
 20
1.95497
 10
3.12282
 20
1.96809
 10
3.1262
 20
1.9813
 10
3.13034
 20
1.99457
 10
3.13521
 20
2.00788
 10
3.14077
 20
2.0212
 10
3.147
 20
2.03453
 10
3.15389
 20
2.04783
 10
3.16141
 20
2.06109
 10
3.27701
 20
2.06109
 10
3.28453
 20
2.04783
 10
3.29142
 20
2.03453
 10
3.29765
 20
2.0212
 10
3.30321
 20
2.00788
 10
3.30808
 20
1.99457
 10
3.31222
 20
1.9813
 10
3.3156
 20
1.96809
 10
3.31814
 20
1.95497
 10
3.31975
 20
1.94197
 10
3.32019
 20
1.92915
 10
3.31867
 20
1.91667
 10
3.31753
 20
1.90412
 10
3.31756
 20
1.89773
 10
3.31808
 20
1.89126
 10
3.31924
 20
1.88466
 10
3.32015
 20
1.8813
 10
3.32133
 20
1.87788
 10
3.3229
 20
1.87438
 10
3.32504
 20
1.87075
 10
3.32823
 20
1.86689
 10
3.38323
 20
1.84902
 10
3.38323
 20
1.84902
 10
3.38323
 20
1.84902
 10
3.43823
 20
1.83115
 10
3.44308
 20
1.8324
 10
3.44695
 20
1.83407
 10
3.45027
 20
1.83598
 10
3.45324
 20
1.83805
 10
3.45595
 20
1.84024
 10
3.46077
 20
1.8449
 10
3.465
 20
1.84983
 10
3.46877
 20
1.85498
 10
3.47523
 20
1.8658
 10
3.48134
 20
1.87679
 10
3.48922
 20
1.88691
 10
3.49816
 20
1.89648
 10
3.50793
 20
1.90559
 10
3.51843
 20
1.91429
 10
3.52958
 20
1.9226
 10
3.54134
 20
1.9305
 10
3.55368
 20
1.93802
 10
3.56655
 20
1.94513
 10
3.57994
 20
1.95185
 10
3.59382
 20
1.95815
 10
3.68734
 20
1.89021
 10
3.68563
 20
1.87505
 10
3.68339
 20
1.86025
 10
3.6806
 20
1.8458
 10
3.67726
 20
1.83175
 10
3.67338
 20
1.81812
 10
3.66893
 20
1.80495
 10
3.6639
 20
1.79228
 10
3.65824
 20
1.78017
 10
3.6519
 20
1.76871
 10
3.64472
 20
1.75809
 10
3.63616
 20
1.74888
 10
3.62786
 20
1.73939
 10
3.62413
 20
1.73421
 10
3.62074
 20
1.72867
 10
3.61781
 20
1.72265
 10
3.61656
 20
1.71939
 10
3.61551
 20
1.71593
 10
3.61472
 20
1.71217
 10
3.61432
 20
1.70798
 10
3.61464
 20
1.70299
 10
3.64863
 20
1.6562
 10
3.64863
 20
1.6562
 10
3.64863
 20
1.6562
 10
3.68262
 20
1.60941
 10
3.68728
 20
1.60757
 10
3.69139
 20
1.60666
 10
3.6952
 20
1.60625
 10
3.69882
 20
1.60618
 10
3.7023
 20
1.60636
 10
3.70893
 20
1.60729
 10
3.71525
 20
1.60879
 10
3.72133
 20
1.61074
 10
3.73292
 20
1.6157
 10
3.74432
 20
1.621
 10
3.75664
 20
1.62455
 10
3.7695
 20
1.62704
 10
3.78277
 20
1.62867
 10
3.79637
 20
1.62954
 10
3.81027
 20
1.6297
 10
3.82444
 20
1.62918
 10
3.83883
 20
1.62801
 10
3.85343
 20
1.6262
 10
3.86821
 20
1.62376
 10
3.88314
 20
1.62071
 10
3.91886
 20
1.51077
 10
3.90858
 20
1.49951
 10
3.89806
 20
1.48886
 10
3.88731
 20
1.47881
 10
3.87635
 20
1.4694
 10
3.8652
 20
1.46066
 10
3.85386
 20
1.45262
 10
3.84234
 20
1.44533
 10
3.83065
 20
1.43885
 10
3.81878
 20
1.4333
 10
3.80673
 20
1.42893
 10
3.79438
 20
1.42652
 10
3.7821
 20
1.42372
 10
3.77603
 20
1.42172
 10
3.77004
 20
1.41923
 10
3.76412
 20
1.41608
 10
3.7612
 20
1.41418
 10
3.75832
 20
1.412
 10
3.75547
 20
1.40942
 10
3.75268
 20
1.40627
 10
3.75
 20
1.40204
 10
3.75
 20
1.34421
 10
3.75
 20
1.34421
 10
3.75
 20
1.34421
 10
3.75
 20
1.28638
 10
3.75268
 20
1.28215
 10
3.75547
 20
1.27899
 10
3.75832
 20
1.27642
 10
3.7612
 20
1.27423
 10
3.76412
 20
1.27234
 10
3.77004
 20
1.26919
 10
3.77603
 20
1.26669
 10
3.7821
 20
1.2647
 10
3.79438
 20
1.2619
 10
3.80673
 20
1.25949
 10
3.81878
 20
1.25511
 10
3.83065
 20
1.24957
 10
3.84234
 20
1.24309
 10
3.85386
 20
1.2358
 10
3.8652
 20
1.22776
 10
3.87635
 20
1.21901
 10
3.88731
 20
1.20961
 10
3.89806
 20
1.19956
 10
3.90858
 20
1.1889
 10
3.91886
 20
1.17765
 10
3.88314
 20
1.06771
 10
3.86821
 20
1.06465
 10
3.85343
 20
1.06221
 10
3.83883
 20
1.0604
 10
3.82444
 20
1.05923
 10
3.81027
 20
1.05872
 10
3.79637
 20
1.05888
 10
3.78277
 20
1.05975
 10
3.7695
 20
1.06138
 10
3.75664
 20
1.06387
 10
3.74432
 20
1.06741
 10
3.73292
 20
1.07272
 10
3.72133
 20
1.07767
 10
3.71525
 20
1.07963
 10
3.70893
 20
1.08113
 10
3.7023
 20
1.08206
 10
3.69882
 20
1.08224
 10
3.6952
 20
1.08217
 10
3.69139
 20
1.08176
 10
3.68728
 20
1.08085
 10
3.68262
 20
1.079
 10
3.64863
 20
1.03222
 10
3.64863
 20
1.03222
 10
3.64863
 20
1.03222
 10
3.61464
 20
0.98543
 10
3.61432
 20
0.98043
 10
3.61472
 20
0.97624
 10
3.61551
 20
0.97249
 10
3.61656
 20
0.96902
 10
3.61781
 20
0.96577
 10
3.62074
 20
0.95975
 10
3.62413
 20
0.9542
 10
3.62786
 20
0.94903
 10
3.63616
 20
0.93954
 10
3.64472
 20
0.93033
 10
3.6519
 20
0.91971
 10
3.65824
 20
0.90825
 10
3.6639
 20
0.89614
 10
3.66893
 20
0.88346
 10
3.67338
 20
0.87029
 10
3.67726
 20
0.85666
 10
3.6806
 20
0.84261
 10
3.68339
 20
0.82817
 10
3.68563
 20
0.81336
 10
3.68734
 20
0.79821
 10
3.59382
 20
0.73027
 10
3.57994
 20
0.73657
 10
3.56655
 20
0.74329
 10
3.55368
 20
0.7504
 10
3.54134
 20
0.75791
 10
3.52958
 20
0.76582
 10
3.51843
 20
0.77412
 10
3.50793
 20
0.78282
 10
3.49816
 20
0.79194
 10
3.48922
 20
0.80151
 10
3.48134
 20
0.81162
 10
3.47523
 20
0.82262
 10
3.46877
 20
0.83344
 10
3.465
 20
0.83859
 10
3.46077
 20
0.84352
 10
3.45595
 20
0.84817
 10
3.45324
 20
0.85036
 10
3.45027
 20
0.85243
 10
3.44695
 20
0.85435
 10
3.44308
 20
0.85602
 10
3.43823
 20
0.85727
 10
3.38323
 20
0.8394
 10
3.38323
 20
0.8394
 10
3.38323
 20
0.8394
 10
3.32823
 20
0.82153
 10
3.32504
 20
0.81767
 10
3.3229
 20
0.81404
 10
3.32133
 20
0.81054
 10
3.32015
 20
0.80712
 10
3.31924
 20
0.80376
 10
3.31808
 20
0.79716
 10
3.31756
 20
0.79068
 10
3.31753
 20
0.7843
 10
3.31867
 20
0.77175
 10
3.32019
 20
0.75926
 10
3.31975
 20
0.74645
 10
3.31814
 20
0.73345
 10
3.3156
 20
0.72033
 10
3.31222
 20
0.70712
 10
3.30808
 20
0.69385
 10
3.30321
 20
0.68054
 10
3.29765
 20
0.66721
 10
3.29142
 20
0.65389
 10
3.28453
 20
0.64059
 10
3.27701
 20
0.62733
 10
3.16141
 20
0.62733
 10
3.15389
 20
0.64059
 10
3.147
 20
0.65389
 10
3.14077
 20
0.66721
 10
3.13521
 20
0.68054
 10
3.13034
 20
0.69385
 10
3.1262
 20
0.70712
 10
3.12282
 20
0.72033
 10
3.12027
 20
0.73345
 10
3.11867
 20
0.74645
 10
3.11823
 20
0.75926
 10
3.11975
 20
0.77175
 10
3.12088
 20
0.7843
 10
3.12086
 20
0.79068
 10
3.12034
 20
0.79716
 10
3.11917
 20
0.80376
 10
3.11827
 20
0.80712
 10
3.11709
 20
0.81054
 10
3.11552
 20
0.81404
 10
3.11338
 20
0.81767
 10
3.11019
 20
0.82153
 10
3.05518
 20
0.8394
 10
3.05518
 20
0.8394
 10
3.05518
 20
0.8394
 10
3.00018
 20
0.85727
 10
2.99533
 20
0.85602
 10
2.99147
 20
0.85435
 10
2.98814
 20
0.85243
 10
2.98517
 20
0.85036
 10
2.98247
 20
0.84817
 10
2.97765
 20
0.84352
 10
2.97342
 20
0.83859
 10
2.96965
 20
0.83344
 10
2.96319
 20
0.82262
 10
2.95708
 20
0.81162
 10
2.94919
 20
0.80151
 10
2.94025
 20
0.79194
 10
2.93048
 20
0.78282
 10
2.91999
 20
0.77412
 10
2.90883
 20
0.76582
 10
2.89707
 20
0.75791
 10
2.88474
 20
0.7504
 10
2.87187
 20
0.74329
 10
2.85848
 20
0.73657
 10
2.84459
 20
0.73027
 10
2.75108
 20
0.79821
 10
2.75278
 20
0.81336
 10
2.75503
 20
0.82817
 10
2.75782
 20
0.84261
 10
2.76116
 20
0.85666
 10
2.76504
 20
0.87029
 10
2.76949
 20
0.88346
 10
2.77452
 20
0.89614
 10
2.78017
 20
0.90825
 10
2.78651
 20
0.91971
 10
2.79369
 20
0.93033
 10
2.80226
 20
0.93954
 10
2.81056
 20
0.94903
 10
2.81429
 20
0.9542
 10
2.81767
 20
0.95975
 10
2.82061
 20
0.96577
 10
2.82186
 20
0.96902
 10
2.82291
 20
0.97249
 10
2.8237
 20
0.97624
 10
2.8241
 20
0.98043
 10
2.82378
 20
0.98543
 10
2.78979
 20
1.03222
 10
2.78979
 20
1.03222
 10
2.78979
 20
1.03222
 10
2.7558
 20
1.079
 10
2.75114
 20
1.08085
 10
2.74703
 20
1.08176
 10
2.74322
 20
1.08217
 10
2.7396
 20
1.08224
 10
2.73612
 20
1.08206
 10
2.72948
 20
1.08113
 10
2.72317
 20
1.07963
 10
2.71709
 20
1.07767
 10
2.7055
 20
1.07272
 10
2.6941
 20
1.06741
 10
2.68177
 20
1.06387
 10
2.66892
 20
1.06138
 10
2.65565
 20
1.05975
 10
2.64204
 20
1.05888
 10
2.62814
 20
1.05872
 10
2.61398
 20
1.05923
 10
2.59959
 20
1.0604
 10
2.58499
 20
1.06221
 10
2.57021
 20
1.06465
 10
2.55527
 20
1.06771
 10
2.51955
 20
1.17765
 10
2.52984
 20
1.1889
 10
2.54036
 20
1.19956
 10
2.55111
 20
1.20961
 10
2.56206
 20
1.21901
 10
2.57322
 20
1.22776
 10
2.58456
 20
1.2358
 10
2.59608
 20
1.24309
 10
2.60777
 20
1.24957
 10
2.61963
 20
1.25511
 10
2.63169
 20
1.25949
 10
2.64403
 20
1.2619
 10
2.65632
 20
1.2647
 10
2.66238
 20
1.26669
 10
2.66838
 20
1.26919
 10
2.67429
 20
1.27234
 10
2.67721
 20
1.27423
 10
2.6801
 20
1.27642
 10
2.68295
 20
1.27899
 10
2.68573
 20
1.28215
 10
2.68842
 20
1.28638
 10
2.68842
 20
1.34421
 10
2.68842
 20
1.34421
 0
CIRCLE
 8
profile
 10
3.21921
 20
1.34421
 40
0.125
  0
ENDSEC
  0
EOF
